# Blender 3.4.1
# www.blender.org
mtllib copihno.mtl
o Cylinder
v 0.000000 0.334432 -1.232755
v 0.000000 3.356891 -1.507858
v 0.471755 0.334432 -1.138917
v 0.577032 3.356891 -1.393079
v 0.871690 0.334432 -0.871690
v 1.066216 3.356891 -1.066216
v 1.138917 0.334432 -0.471755
v 1.393079 3.356891 -0.577032
v 1.232755 0.334432 -0.000000
v 1.507858 3.356891 -0.000000
v 1.138917 0.334432 0.471755
v 1.393079 3.356891 0.577032
v 0.871690 0.334432 0.871690
v 1.066216 3.356891 1.066216
v 0.471755 0.334432 1.138917
v 0.577032 3.356891 1.393079
v 0.000000 0.334432 1.232755
v 0.000000 3.356891 1.507858
v -0.471755 0.334432 1.138917
v -0.577032 3.356891 1.393079
v -0.871690 0.334432 0.871690
v -1.066216 3.356891 1.066216
v -1.138917 0.334432 0.471755
v -1.393079 3.356891 0.577032
v -1.232755 0.334432 -0.000000
v -1.507858 3.356891 -0.000000
v -1.138917 0.334432 -0.471755
v -1.393079 3.356891 -0.577032
v -0.871690 0.334432 -0.871690
v -1.066216 3.356891 -1.066216
v -0.471755 0.334432 -1.138917
v -0.577032 3.356891 -1.393079
v 0.000000 2.961368 -1.478212
v 0.565687 2.961368 -1.365690
v 1.045254 2.961368 -1.045254
v 1.365690 2.961368 -0.565687
v 1.478212 2.961368 -0.000000
v 1.365690 2.961368 0.565687
v 1.045254 2.961368 1.045254
v 0.565687 2.961368 1.365690
v 0.000000 2.961368 1.478212
v -0.565687 2.961368 1.365690
v -1.045254 2.961368 1.045254
v -1.365690 2.961368 0.565687
v -1.478212 2.961368 -0.000000
v -1.365690 2.961368 -0.565687
v -1.045254 2.961368 -1.045254
v -0.565687 2.961368 -1.365690
v 0.481583 0.705262 -1.162644
v 0.889849 0.705262 -0.889849
v 1.162644 0.705262 -0.481583
v 1.258437 0.705262 -0.000000
v 1.162644 0.705262 0.481583
v 0.889849 0.705262 0.889849
v 0.481583 0.705262 1.162644
v 0.000000 0.705262 1.258437
v -0.481583 0.705262 1.162644
v -0.889849 0.705262 0.889849
v -1.162644 0.705262 0.481583
v -1.258437 0.705262 -0.000000
v -1.162644 0.705262 -0.481583
v -0.889849 0.705262 -0.889849
v -0.481583 0.705262 -1.162644
v 0.000000 0.705262 -1.258437
v 0.628344 3.372840 -1.516955
v 0.000000 3.372840 -1.641941
v 0.000000 2.945419 -1.596798
v 1.161027 3.372840 -1.161027
v 1.516955 3.372840 -0.628344
v 1.641941 3.372840 -0.000000
v 1.516955 3.372840 0.628344
v 1.161027 3.372840 1.161027
v 0.628344 3.372840 1.516955
v 0.000000 3.372840 1.641941
v -0.628344 3.372840 1.516955
v -1.161027 3.372840 1.161027
v -1.516955 3.372840 0.628344
v -1.641941 3.372840 -0.000000
v -1.516955 3.372840 -0.628344
v -1.161027 3.372840 -1.161027
v -0.628344 3.372840 -1.516955
v 0.611068 2.945419 -1.475249
v 1.129107 2.945419 -1.129107
v 1.475249 2.945419 -0.611068
v 1.596798 2.945419 -0.000000
v 1.475249 2.945419 0.611068
v 1.129107 2.945419 1.129107
v 0.611068 2.945419 1.475249
v 0.000000 2.945419 1.596798
v -0.611068 2.945419 1.475249
v -1.129107 2.945419 1.129107
v -1.475249 2.945419 0.611068
v -1.596798 2.945419 -0.000000
v -1.475249 2.945419 -0.611068
v -1.129107 2.945419 -1.129107
v -0.611068 2.945419 -1.475249
v 0.000000 0.323331 -1.309674
v 0.501191 0.323331 -1.209981
v 0.517065 0.716362 -1.248305
v 0.926080 0.323331 -0.926080
v 0.955411 0.716362 -0.955411
v 1.209981 0.323331 -0.501191
v 1.248305 0.716362 -0.517065
v 1.309674 0.323331 -0.000000
v 1.351155 0.716362 -0.000000
v 1.209981 0.323331 0.501191
v 1.248305 0.716362 0.517065
v 0.926080 0.323331 0.926080
v 0.955411 0.716362 0.955411
v 0.501191 0.323331 1.209981
v 0.517065 0.716362 1.248305
v 0.000000 0.323331 1.309674
v 0.000000 0.716362 1.351155
v -0.501191 0.323331 1.209981
v -0.517065 0.716362 1.248305
v -0.926080 0.323331 0.926080
v -0.955411 0.716362 0.955411
v -1.209981 0.323331 0.501191
v -1.248305 0.716362 0.517065
v -1.309674 0.323331 -0.000000
v -1.351155 0.716362 -0.000000
v -1.209981 0.323331 -0.501191
v -1.248305 0.716362 -0.517065
v -0.926080 0.323331 -0.926080
v -0.955411 0.716362 -0.955411
v -0.501191 0.323331 -1.209981
v -0.517065 0.716362 -1.248305
v 0.000000 0.716362 -1.351155
v 0.587771 3.356891 -1.419004
v 0.000000 3.356891 -1.535919
v 1.086058 3.356891 -1.086058
v 1.419004 3.356891 -0.587771
v 1.535919 3.356891 -0.000000
v 1.419004 3.356891 0.587771
v 1.086058 3.356891 1.086058
v 0.587771 3.356891 1.419004
v 0.000000 3.356891 1.535919
v -0.587771 3.356891 1.419004
v -1.086058 3.356891 1.086058
v -1.419004 3.356891 0.587771
v -1.535919 3.356891 -0.000000
v -1.419004 3.356891 -0.587771
v -1.086058 3.356891 -1.086058
v -0.587771 3.356891 -1.419004
v 0.360606 0.441259 -0.870580
v -0.000000 0.441259 -0.942309
v 0.666313 0.441259 -0.666313
v 0.870580 0.441259 -0.360606
v 0.942309 0.441259 -0.000000
v 0.870580 0.441259 0.360606
v 0.666313 0.441259 0.666313
v 0.360606 0.441259 0.870580
v -0.000000 0.441259 0.942309
v -0.360606 0.441259 0.870580
v -0.666313 0.441259 0.666313
v -0.870580 0.441259 0.360606
v -0.942309 0.441259 -0.000000
v -0.870580 0.441259 -0.360606
v -0.666313 0.441259 -0.666313
v -0.360606 0.441259 -0.870580
vn 0.0235 0.9927 0.1181
vn -0.0669 0.9927 -0.1001
vn -0.0755 -0.9907 -0.1130
vn 0.1001 0.9927 -0.0669
vn -0.0669 0.9927 0.1001
vn -0.0265 -0.9907 -0.1332
vn 0.0265 -0.9907 -0.1332
vn 0.0669 0.9927 0.1001
vn -0.1001 0.9927 -0.0669
vn 0.0755 -0.9907 -0.1130
vn 0.0669 0.9927 -0.1001
vn 0.1130 -0.9907 -0.0755
vn -0.0235 0.9927 0.1181
vn 0.1332 -0.9907 -0.0265
vn -0.0000 -1.0000 -0.0000
vn 0.1001 0.9927 0.0669
vn -0.1181 0.9927 -0.0235
vn -0.1942 -0.0951 -0.9763
vn -0.5531 -0.0951 -0.8277
vn -0.8277 -0.0951 -0.5531
vn -0.9763 -0.0951 -0.1942
vn -0.9763 -0.0951 0.1942
vn -0.8277 -0.0951 0.5531
vn -0.5531 -0.0951 0.8277
vn -0.1942 -0.0951 0.9763
vn 0.1942 -0.0951 0.9763
vn 0.5531 -0.0951 0.8277
vn 0.8277 -0.0951 0.5531
vn 0.9763 -0.0951 0.1942
vn 0.9763 -0.0951 -0.1942
vn 0.8277 -0.0951 -0.5531
vn 0.5531 -0.0951 -0.8277
vn 0.1942 -0.0951 -0.9763
vn -0.1188 0.9926 -0.0236
vn 0.0284 -0.9893 0.1428
vn -0.0809 -0.9893 -0.1210
vn -0.1188 0.9926 0.0236
vn 0.1210 -0.9893 -0.0809
vn -0.1007 0.9926 0.0673
vn -0.0809 -0.9893 0.1210
vn 0.0236 0.9926 0.1188
vn -0.0673 0.9926 0.1007
vn 0.0809 -0.9893 0.1210
vn 0.0673 0.9926 0.1007
vn -0.1210 -0.9893 -0.0809
vn -0.0236 0.9926 0.1188
vn 0.1007 0.9926 0.0673
vn 0.0809 -0.9893 -0.1210
vn 0.1188 0.9926 0.0236
vn 0.1941 -0.1030 -0.9756
vn 0.5526 -0.1030 -0.8270
vn 0.8270 -0.1030 -0.5526
vn 0.9756 -0.1030 -0.1941
vn 0.9756 -0.1030 0.1941
vn 0.8270 -0.1030 0.5526
vn 0.5526 -0.1030 0.8270
vn 0.1941 -0.1030 0.9756
vn -0.1941 -0.1030 0.9756
vn -0.5526 -0.1030 0.8270
vn -0.8270 -0.1030 0.5526
vn -0.9756 -0.1030 0.1941
vn -0.9756 -0.1030 -0.1941
vn -0.8270 -0.1030 -0.5526
vn -0.5526 -0.1030 -0.8270
vn -0.1941 -0.1030 -0.9756
vn -0.1130 -0.9907 -0.0755
vn -0.1332 -0.9907 -0.0265
vn -0.1001 0.9927 0.0669
vn 0.1181 0.9927 -0.0235
vn -0.1332 -0.9907 0.0265
vn -0.0235 0.9927 -0.1181
vn -0.1130 -0.9907 0.0755
vn 0.0265 -0.9907 0.1332
vn -0.0755 -0.9907 0.1130
vn -0.1181 0.9927 0.0235
vn 0.1181 0.9927 0.0235
vn 0.0755 -0.9907 0.1130
vn -0.0265 -0.9907 0.1332
vn 0.1130 -0.9907 0.0755
vn 0.0235 0.9927 -0.1181
vn 0.1332 -0.9907 0.0265
vn 0.5526 -0.1030 -0.8271
vn 0.8271 -0.1030 -0.5526
vn 0.8271 -0.1030 0.5526
vn 0.5526 -0.1030 0.8271
vn -0.5526 -0.1030 0.8271
vn -0.8271 -0.1030 0.5526
vn -0.8271 -0.1030 -0.5526
vn -0.5526 -0.1030 -0.8271
vn -0.1210 -0.9893 0.0809
vn -0.1007 0.9926 -0.0673
vn 0.1428 -0.9893 -0.0284
vn -0.0673 0.9926 -0.1007
vn -0.0284 -0.9893 -0.1428
vn -0.0236 0.9926 -0.1188
vn -0.1428 -0.9893 0.0284
vn 0.0236 0.9926 -0.1188
vn 0.1428 -0.9893 0.0284
vn 0.0673 0.9926 -0.1007
vn 0.0284 -0.9893 -0.1428
vn 0.1007 0.9926 -0.0673
vn -0.1428 -0.9893 -0.0284
vn 0.1188 0.9926 -0.0236
vn 0.1210 -0.9893 0.0809
vn -0.0284 -0.9893 0.1428
vn -0.1913 0.1958 -0.9618
vn -0.0000 1.0000 -0.0000
vn -0.1913 0.1958 0.9618
vn 0.1913 0.1958 0.9618
vn 0.1913 0.1958 -0.9618
vn -0.5448 0.1958 0.8154
vn 0.5448 0.1958 -0.8154
vn -0.8154 0.1958 0.5448
vn 0.8154 0.1958 -0.5448
vn -0.9618 0.1958 0.1913
vn 0.9618 0.1958 -0.1913
vn -0.9618 0.1958 -0.1913
vn 0.9618 0.1958 0.1913
vn -0.8154 0.1958 -0.5448
vn 0.8154 0.1958 0.5448
vn -0.5448 0.1958 -0.8154
vn 0.5448 0.1958 0.8154
vt 0.608166 0.509444
vt 0.399001 0.917282
vt 0.621962 0.506700
vt 0.450211 0.907095
vt 0.633657 0.498885
vt 0.493625 0.878087
vt 0.641472 0.487190
vt 0.522633 0.834674
vt 0.644216 0.473394
vt 0.532819 0.783464
vt 0.641472 0.459598
vt 0.522633 0.732254
vt 0.633657 0.447902
vt 0.493625 0.688840
vt 0.621962 0.440087
vt 0.450211 0.659832
vt 0.608166 0.437343
vt 0.399001 0.649646
vt 0.594370 0.440087
vt 0.347791 0.659832
vt 0.582674 0.447902
vt 0.304378 0.688840
vt 0.574860 0.459598
vt 0.275370 0.732254
vt 0.572115 0.473394
vt 0.265183 0.783464
vt 0.574860 0.487190
vt 0.275370 0.834674
vt 0.582674 0.498885
vt 0.304378 0.878087
vt 0.594370 0.506700
vt 0.347791 0.907095
vt 0.257247 0.591254
vt 0.814823 0.591254
vt 0.257247 0.845312
vt 0.814823 0.845312
vt 0.779974 0.591254
vt 0.779974 0.845312
vt 0.745126 0.591254
vt 0.745126 0.845312
vt 0.710277 0.591254
vt 0.710277 0.845312
vt 0.675429 0.591254
vt 0.675429 0.845312
vt 0.640580 0.591254
vt 0.640580 0.845312
vt 0.605732 0.591254
vt 0.605732 0.845312
vt 0.570884 0.845312
vt 0.570884 0.591254
vt 0.536035 0.845312
vt 0.536035 0.591254
vt 0.501187 0.845312
vt 0.501187 0.591254
vt 0.466338 0.845312
vt 0.466338 0.591254
vt 0.431490 0.845312
vt 0.431490 0.591254
vt 0.396641 0.591254
vt 0.396641 0.845312
vt 0.361793 0.591254
vt 0.361793 0.845312
vt 0.326944 0.591254
vt 0.326944 0.845312
vt 0.292096 0.591254
vt 0.292096 0.845312
vt 0.781154 0.248108
vt 0.781154 0.502166
vt 0.746306 0.248108
vt 0.746306 0.502166
vt 0.711457 0.248108
vt 0.711457 0.502166
vt 0.676609 0.248108
vt 0.676609 0.502166
vt 0.641761 0.248108
vt 0.641761 0.502166
vt 0.606912 0.248108
vt 0.606912 0.502166
vt 0.572064 0.248108
vt 0.572064 0.502166
vt 0.537215 0.248108
vt 0.537215 0.502166
vt 0.502367 0.248108
vt 0.502367 0.502166
vt 0.467518 0.248108
vt 0.467518 0.502166
vt 0.432670 0.248108
vt 0.432670 0.502166
vt 0.397821 0.248108
vt 0.397821 0.502166
vt 0.362973 0.248108
vt 0.362973 0.502166
vt 0.328124 0.248108
vt 0.328124 0.502166
vt 0.287234 0.252640
vt 0.293276 0.248108
vt 0.287234 0.506698
vt 0.293276 0.502166
vt 0.256209 0.289221
vt 0.816003 0.248108
vt 0.256209 0.543279
vt 0.816003 0.502166
vt 0.450211 0.907095
vt 0.779974 0.948238
vt 0.399001 0.917282
vt 0.814823 0.948238
vt 0.257247 0.948238
vt 0.257247 0.845312
vt 0.814823 0.845312
vt 0.745126 0.948238
vt 0.493625 0.878087
vt 0.710277 0.948238
vt 0.522633 0.834674
vt 0.675429 0.948238
vt 0.532819 0.783464
vt 0.522633 0.732254
vt 0.640580 0.948238
vt 0.493625 0.688840
vt 0.605732 0.948238
vt 0.570884 0.948238
vt 0.450211 0.659832
vt 0.536035 0.948238
vt 0.399001 0.649646
vt 0.501187 0.948238
vt 0.347791 0.659832
vt 0.304378 0.688840
vt 0.466338 0.948238
vt 0.431490 0.948238
vt 0.275370 0.732254
vt 0.396641 0.948238
vt 0.265183 0.783464
vt 0.361793 0.948238
vt 0.275370 0.834674
vt 0.304378 0.878087
vt 0.326944 0.948238
vt 0.347791 0.907095
vt 0.292096 0.948238
vt 0.779974 0.845312
vt 0.745126 0.845312
vt 0.710277 0.845312
vt 0.675429 0.845312
vt 0.640580 0.845312
vt 0.605732 0.845312
vt 0.570884 0.845312
vt 0.536035 0.845312
vt 0.501187 0.845312
vt 0.466338 0.845312
vt 0.431490 0.845312
vt 0.396641 0.845312
vt 0.361793 0.845312
vt 0.326944 0.845312
vt 0.292096 0.845312
vt 0.816003 0.150916
vt 0.258427 0.150916
vt 0.608166 0.509444
vt 0.781154 0.150916
vt 0.621962 0.506700
vt 0.781154 0.502166
vt 0.781154 0.262222
vt 0.746306 0.150916
vt 0.633657 0.498885
vt 0.746306 0.502166
vt 0.746306 0.262222
vt 0.711457 0.150916
vt 0.641472 0.487190
vt 0.711457 0.502166
vt 0.711457 0.262222
vt 0.676609 0.150916
vt 0.644216 0.473394
vt 0.676609 0.502166
vt 0.676609 0.262222
vt 0.641761 0.150916
vt 0.641472 0.459598
vt 0.641761 0.262222
vt 0.641761 0.502166
vt 0.633657 0.447902
vt 0.606912 0.150916
vt 0.606912 0.262222
vt 0.606912 0.502166
vt 0.572064 0.150916
vt 0.621962 0.440087
vt 0.572064 0.262222
vt 0.572064 0.502166
vt 0.537215 0.150916
vt 0.608166 0.437343
vt 0.537215 0.262222
vt 0.537215 0.502166
vt 0.502367 0.150916
vt 0.594370 0.440087
vt 0.502367 0.262222
vt 0.502367 0.502166
vt 0.582674 0.447902
vt 0.467518 0.150916
vt 0.467518 0.262222
vt 0.467518 0.502166
vt 0.432670 0.150916
vt 0.574860 0.459598
vt 0.432670 0.262222
vt 0.432670 0.502166
vt 0.397821 0.150916
vt 0.572115 0.473394
vt 0.397821 0.262222
vt 0.397821 0.502166
vt 0.362973 0.150916
vt 0.574860 0.487190
vt 0.362973 0.502166
vt 0.362973 0.262222
vt 0.328124 0.150916
vt 0.582674 0.498885
vt 0.328124 0.502166
vt 0.328124 0.262222
vt 0.594370 0.506700
vt 0.293276 0.150916
vt 0.287234 0.506698
vt 0.293276 0.502166
vt 0.293276 0.262222
vt 0.256209 0.543279
vt 0.816003 0.502166
vt 0.816003 0.262222
vt 0.258427 0.262222
vt 0.450211 0.907095
vt 0.399001 0.917282
vt 0.493625 0.878087
vt 0.522633 0.834674
vt 0.532819 0.783464
vt 0.522633 0.732254
vt 0.493625 0.688840
vt 0.450211 0.659832
vt 0.399001 0.649646
vt 0.347791 0.659832
vt 0.304378 0.688840
vt 0.275370 0.732254
vt 0.265183 0.783464
vt 0.275370 0.834674
vt 0.304378 0.878087
vt 0.347791 0.907095
vt 0.450211 0.907095
vt 0.399001 0.917282
vt 0.493625 0.878087
vt 0.522633 0.834674
vt 0.532819 0.783464
vt 0.522633 0.732254
vt 0.493625 0.688840
vt 0.450211 0.659832
vt 0.399001 0.649646
vt 0.347791 0.659832
vt 0.304378 0.688840
vt 0.275370 0.732254
vt 0.265183 0.783464
vt 0.275370 0.834674
vt 0.304378 0.878087
vt 0.347791 0.907095
s 0
usemtl Material.001
f 32/32/1 2/2/1 66/105/1 81/136/1
f 14/14/2 16/16/2 73/121/2 72/118/2
f 40/49/3 39/48/3 87/143/3 88/144/3
f 22/22/4 24/24/4 77/129/4 76/126/4
f 4/4/5 6/6/5 68/111/5 65/103/5
f 41/51/6 40/49/6 88/144/6 89/145/6
f 42/53/7 41/51/7 89/145/7 90/146/7
f 30/30/8 32/32/8 81/136/8 80/134/8
f 12/12/9 14/14/9 72/118/9 71/116/9
f 43/55/10 42/53/10 90/146/10 91/147/10
f 20/20/11 22/22/11 76/126/11 75/125/11
f 44/57/12 43/55/12 91/147/12 92/148/12
f 2/2/13 4/4/13 65/103/13 66/105/13
f 45/60/14 44/57/14 92/148/14 93/149/14
f 10/10/15 8/8/15 132/224/15 133/225/15
f 28/28/16 30/30/16 80/134/16 79/133/16
f 10/10/17 12/12/17 71/116/17 70/115/17
f 1/1/15 3/3/15 5/5/15 7/7/15 9/9/15 11/11/15 13/13/15 15/15/15 17/17/15 19/19/15 21/21/15 23/23/15 25/25/15 27/27/15 29/29/15 31/31/15
f 63/95/18 48/65/18 33/33/18 64/99/18
f 62/93/19 47/63/19 48/65/19 63/96/19
f 61/91/20 46/61/20 47/63/20 62/93/20
f 60/89/21 45/59/21 46/61/21 61/91/21
f 59/87/22 44/58/22 45/59/22 60/89/22
f 58/85/23 43/56/23 44/58/23 59/87/23
f 57/83/24 42/54/24 43/56/24 58/85/24
f 56/81/25 41/52/25 42/54/25 57/83/25
f 55/79/26 40/50/26 41/52/26 56/81/26
f 54/77/27 39/47/27 40/50/27 55/79/27
f 53/75/28 38/45/28 39/47/28 54/77/28
f 52/73/29 37/43/29 38/45/29 53/75/29
f 51/71/30 36/41/30 37/43/30 52/73/30
f 50/69/31 35/39/31 36/41/31 51/71/31
f 49/67/32 34/37/32 35/39/32 50/69/32
f 64/100/33 33/34/33 34/37/33 49/67/33
f 52/74/34 53/76/34 107/175/34 105/170/34
f 1/1/35 31/31/35 126/212/35 97/155/35
f 15/15/36 13/13/36 108/176/36 110/181/36
f 51/72/37 52/74/37 105/170/37 103/166/37
f 23/23/38 21/21/38 116/192/38 118/197/38
f 50/70/39 51/72/39 103/166/39 101/162/39
f 5/5/40 3/3/40 98/157/40 100/161/40
f 63/97/41 64/101/41 128/217/41 127/214/41
f 49/68/42 50/70/42 101/162/42 99/158/42
f 31/31/43 29/29/43 124/209/43 126/212/43
f 62/94/44 63/98/44 127/215/44 125/210/44
f 13/13/45 11/11/45 106/173/45 108/176/45
f 64/102/46 49/68/46 99/158/46 128/218/46
f 61/92/47 62/94/47 125/210/47 123/206/47
f 21/21/48 19/19/48 114/189/48 116/192/48
f 60/90/49 61/92/49 123/206/49 121/203/49
f 67/109/50 66/106/50 65/104/50 82/138/50
f 82/138/51 65/104/51 68/110/51 83/139/51
f 83/139/52 68/110/52 69/112/52 84/140/52
f 84/140/53 69/112/53 70/114/53 85/141/53
f 85/141/54 70/114/54 71/117/54 86/142/54
f 86/142/55 71/117/55 72/119/55 87/143/55
f 87/143/56 72/119/56 73/120/56 88/144/56
f 88/144/57 73/120/57 74/122/57 89/145/57
f 89/145/58 74/122/58 75/124/58 90/146/58
f 90/146/59 75/124/59 76/127/59 91/147/59
f 91/147/60 76/127/60 77/128/60 92/148/60
f 92/148/61 77/128/61 78/130/61 93/149/61
f 93/149/62 78/130/62 79/132/62 94/150/62
f 94/150/63 79/132/63 80/135/63 95/151/63
f 95/151/64 80/135/64 81/137/64 96/152/64
f 96/152/65 81/137/65 66/107/65 67/108/65
f 39/48/66 38/46/66 86/142/66 87/143/66
f 38/46/67 37/44/67 85/141/67 86/142/67
f 6/6/68 8/8/68 69/113/68 68/111/68
f 24/24/69 26/26/69 78/131/69 77/129/69
f 37/44/70 36/42/70 84/140/70 85/141/70
f 16/16/71 18/18/71 74/123/71 73/121/71
f 36/42/72 35/40/72 83/139/72 84/140/72
f 33/35/73 48/66/73 96/152/73 67/108/73
f 35/40/74 34/38/74 82/138/74 83/139/74
f 8/8/75 10/10/75 70/115/75 69/113/75
f 26/26/76 28/28/76 79/133/76 78/131/76
f 48/66/77 47/64/77 95/151/77 96/152/77
f 34/38/78 33/36/78 67/109/78 82/138/78
f 47/64/79 46/62/79 94/150/79 95/151/79
f 18/18/80 20/20/80 75/125/80 74/123/80
f 46/62/81 45/60/81 93/149/81 94/150/81
f 97/153/50 128/219/50 99/159/50 98/156/50
f 98/156/82 99/159/82 101/163/82 100/160/82
f 100/160/83 101/163/83 103/167/83 102/164/83
f 102/164/53 103/167/53 105/171/53 104/168/53
f 104/168/54 105/171/54 107/174/54 106/172/54
f 106/172/84 107/174/84 109/178/84 108/177/84
f 108/177/85 109/178/85 111/182/85 110/180/85
f 110/180/57 111/182/57 113/186/57 112/184/57
f 112/184/58 113/186/58 115/190/58 114/188/58
f 114/188/86 115/190/86 117/194/86 116/193/86
f 116/193/87 117/194/87 119/198/87 118/196/87
f 118/196/61 119/198/61 121/202/61 120/200/61
f 120/200/62 121/202/62 123/207/62 122/204/62
f 122/204/88 123/207/88 125/211/88 124/208/88
f 124/208/89 125/211/89 127/216/89 126/213/89
f 126/213/65 127/216/65 128/220/65 97/154/65
f 7/7/90 5/5/90 100/161/90 102/165/90
f 53/76/91 54/78/91 109/179/91 107/175/91
f 25/25/92 23/23/92 118/197/92 120/201/92
f 54/78/93 55/80/93 111/183/93 109/179/93
f 17/17/94 15/15/94 110/181/94 112/185/94
f 55/80/95 56/82/95 113/187/95 111/183/95
f 9/9/96 7/7/96 102/165/96 104/169/96
f 56/82/97 57/84/97 115/191/97 113/187/97
f 27/27/98 25/25/98 120/201/98 122/205/98
f 57/84/99 58/86/99 117/195/99 115/191/99
f 19/19/100 17/17/100 112/185/100 114/189/100
f 58/86/101 59/88/101 119/199/101 117/195/101
f 11/11/102 9/9/102 104/169/102 106/173/102
f 59/88/103 60/90/103 121/203/103 119/199/103
f 29/29/104 27/27/104 122/205/104 124/209/104
f 3/3/105 1/1/105 97/155/105 98/157/105
f 137/229/106 136/228/106 152/244/106 153/245/106
f 20/20/15 18/18/15 137/229/15 138/230/15
f 30/30/15 28/28/15 142/234/15 143/235/15
f 6/6/15 4/4/15 129/221/15 131/223/15
f 16/16/15 14/14/15 135/227/15 136/228/15
f 26/26/15 24/24/15 140/232/15 141/233/15
f 12/12/15 10/10/15 133/225/15 134/226/15
f 22/22/15 20/20/15 138/230/15 139/231/15
f 32/32/15 30/30/15 143/235/15 144/236/15
f 8/8/15 6/6/15 131/223/15 132/224/15
f 18/18/15 16/16/15 136/228/15 137/229/15
f 4/4/15 2/2/15 130/222/15 129/221/15
f 28/28/15 26/26/15 141/233/15 142/234/15
f 14/14/15 12/12/15 134/226/15 135/227/15
f 24/24/15 22/22/15 139/231/15 140/232/15
f 2/2/15 32/32/15 144/236/15 130/222/15
f 145/237/107 146/238/107 160/252/107 159/251/107 158/250/107 157/249/107 156/248/107 155/247/107 154/246/107 153/245/107 152/244/107 151/243/107 150/242/107 149/241/107 148/240/107 147/239/107
f 129/221/108 130/222/108 146/238/108 145/237/108
f 130/222/109 144/236/109 160/252/109 146/238/109
f 138/230/110 137/229/110 153/245/110 154/246/110
f 131/223/111 129/221/111 145/237/111 147/239/111
f 139/231/112 138/230/112 154/246/112 155/247/112
f 132/224/113 131/223/113 147/239/113 148/240/113
f 140/232/114 139/231/114 155/247/114 156/248/114
f 133/225/115 132/224/115 148/240/115 149/241/115
f 141/233/116 140/232/116 156/248/116 157/249/116
f 134/226/117 133/225/117 149/241/117 150/242/117
f 142/234/118 141/233/118 157/249/118 158/250/118
f 135/227/119 134/226/119 150/242/119 151/243/119
f 143/235/120 142/234/120 158/250/120 159/251/120
f 136/228/121 135/227/121 151/243/121 152/244/121
f 144/236/122 143/235/122 159/251/122 160/252/122
