# Blender 3.4.1
# www.blender.org
mtllib viga.mtl
o Cylinder
v -0.399409 -1.660697 -0.499144
v -0.399409 14.745908 -0.499144
v 0.151773 -1.660697 -0.180919
v 0.151773 14.745908 -0.180919
v 0.151773 -1.660697 0.455532
v 0.151773 14.745908 0.455532
v -0.399409 -1.660697 0.773757
v -0.399409 14.745908 0.773757
v -0.950592 -1.660697 0.455532
v -0.950592 14.745908 0.455532
v -0.950592 -1.660697 -0.180919
v -0.950592 14.745908 -0.180919
vn 0.5000 -0.0000 -0.8660
vn 1.0000 -0.0000 -0.0000
vn 0.5000 -0.0000 0.8660
vn -0.5000 -0.0000 0.8660
vn -0.0000 1.0000 -0.0000
vn -1.0000 -0.0000 -0.0000
vn -0.5000 -0.0000 -0.8660
vn -0.0000 -1.0000 -0.0000
vt 0.910781 -0.000245
vt 0.089219 -0.000245
vt 0.750000 0.490000
vt 0.999039 0.996130
vt 0.250000 0.490000
vt 0.000961 0.996130
vt 0.773854 -0.000245
vt 0.957846 0.370000
vt 0.832692 0.996130
vt 0.457846 0.370000
vt 0.636927 -0.000245
vt 0.957846 0.130000
vt 0.666346 0.996130
vt 0.457846 0.130000
vt 0.500000 -0.000245
vt 0.750000 0.010000
vt 0.500000 0.996130
vt 0.250000 0.010000
vt 0.363073 -0.000245
vt 0.542154 0.130000
vt 0.042154 0.130000
vt 0.333654 0.996130
vt 0.226146 -0.000245
vt 0.542154 0.370000
vt 0.042154 0.370000
vt 0.167307 0.996130
s 0
usemtl Material.001
f 1/1/1 2/4/1 4/9/1 3/7/1
f 3/7/2 4/9/2 6/13/2 5/11/2
f 5/11/3 6/13/3 8/17/3 7/15/3
f 7/15/4 8/17/4 10/22/4 9/19/4
f 4/10/5 2/5/5 12/25/5 10/21/5 8/18/5 6/14/5
f 9/19/6 10/22/6 12/26/6 11/23/6
f 11/23/7 12/26/7 2/6/7 1/2/7
f 1/3/8 3/8/8 5/12/8 7/16/8 9/20/8 11/24/8
