# Blender 3.4.1
# www.blender.org
mtllib caxaxinha.mtl
o Cylinder
v 0.000000 0.195018 -1.000000
v 0.000000 3.605912 -1.000000
v 0.382683 0.195018 -0.923880
v 0.382683 3.605912 -0.923880
v 0.707107 0.195018 -0.707107
v 0.707107 3.605912 -0.707107
v 0.923880 0.195018 -0.382683
v 0.923880 3.605912 -0.382683
v 1.000000 0.195018 0.000000
v 1.000000 3.605912 0.000000
v 0.923880 0.195018 0.382683
v 0.923880 3.605912 0.382683
v 0.707107 0.195018 0.707107
v 0.707107 3.605912 0.707107
v 0.382683 0.195018 0.923880
v 0.382683 3.605912 0.923880
v 0.000000 0.195018 1.000000
v 0.000000 3.605912 1.000000
v -0.382683 0.195018 0.923880
v -0.382683 3.605912 0.923880
v -0.707107 0.195018 0.707107
v -0.707107 3.605912 0.707107
v -0.923880 0.195018 0.382683
v -0.923880 3.605912 0.382683
v -1.000000 0.195018 0.000000
v -1.000000 3.605912 0.000000
v -0.923880 0.195018 -0.382683
v -0.923880 3.605912 -0.382683
v -0.707107 0.195018 -0.707107
v -0.707107 3.605912 -0.707107
v -0.382683 0.195018 -0.923880
v -0.382683 3.605912 -0.923880
v 0.113372 4.190227 -0.273704
v -0.000000 4.190227 -0.296256
v 0.209484 4.190227 -0.209484
v 0.273704 4.190227 -0.113372
v 0.296256 4.190227 0.000000
v 0.273704 4.190227 0.113372
v 0.209484 4.190227 0.209484
v 0.113372 4.190227 0.273704
v -0.000000 4.190227 0.296256
v -0.113372 4.190227 0.273704
v -0.209484 4.190227 0.209484
v -0.273704 4.190227 0.113372
v -0.296256 4.190227 0.000000
v -0.273704 4.190227 -0.113372
v -0.209484 4.190227 -0.209484
v -0.113372 4.190227 -0.273704
v 0.113372 5.367409 -0.273704
v 0.000000 5.367409 -0.296256
v 0.209484 5.367409 -0.209484
v 0.273704 5.367409 -0.113372
v 0.296256 5.367409 0.000000
v 0.273704 5.367409 0.113372
v 0.209484 5.367409 0.209484
v 0.113372 5.367409 0.273704
v 0.000000 5.367409 0.296256
v -0.113372 5.367409 0.273704
v -0.209484 5.367409 0.209484
v -0.273704 5.367409 0.113372
v -0.296256 5.367409 0.000000
v -0.273704 5.367409 -0.113372
v -0.209484 5.367409 -0.209484
v -0.113372 5.367409 -0.273704
vn 0.1951 -0.0000 -0.9808
vn 0.5556 -0.0000 -0.8315
vn 0.8315 -0.0000 -0.5556
vn 0.9808 -0.0000 -0.1951
vn 0.9808 -0.0000 0.1951
vn 0.8315 -0.0000 0.5556
vn 0.5556 -0.0000 0.8315
vn 0.1951 -0.0000 0.9808
vn -0.1951 -0.0000 0.9808
vn -0.5556 -0.0000 0.8315
vn -0.8315 -0.0000 0.5556
vn -0.9808 -0.0000 0.1951
vn -0.9808 -0.0000 -0.1951
vn -0.8315 -0.0000 -0.5556
vn -0.1261 0.7632 -0.6337
vn -0.5556 -0.0000 -0.8315
vn -0.1951 -0.0000 -0.9808
vn -0.0000 -1.0000 -0.0000
vn 0.6337 0.7632 -0.1261
vn -0.1261 0.7632 0.6337
vn -0.5372 0.7632 -0.3590
vn 0.3590 0.7632 -0.5372
vn 0.3590 0.7632 0.5372
vn -0.6337 0.7632 0.1261
vn 0.6337 0.7632 0.1261
vn -0.3590 0.7632 0.5372
vn -0.3590 0.7632 -0.5372
vn 0.5372 0.7632 -0.3590
vn 0.1261 0.7632 0.6337
vn -0.6337 0.7632 -0.1261
vn 0.1261 0.7632 -0.6337
vn 0.5372 0.7632 0.3590
vn -0.5372 0.7632 0.3590
vn -0.0000 1.0000 -0.0000
vt 1.001698 0.002983
vt 0.001698 0.002983
vt 0.758490 0.242600
vt 0.000000 1.000000
vt 1.000000 1.000000
vt 0.939198 0.002983
vt 0.790240 0.236284
vt 0.937500 1.000000
vt 0.876698 0.002983
vt 0.817156 0.218299
vt 0.875000 1.000000
vt 0.814198 0.002983
vt 0.835141 0.191383
vt 0.812500 1.000000
vt 0.751698 0.002983
vt 0.841457 0.159633
vt 0.750000 1.000000
vt 0.689198 0.002983
vt 0.835141 0.127883
vt 0.687500 1.000000
vt 0.626698 0.002983
vt 0.693140 0.002983
vt 0.817156 0.100967
vt 0.690546 1.000000
vt 0.625000 1.000000
vt 0.597643 0.002983
vt 0.790240 0.082982
vt 0.595049 1.000000
vt 0.562500 1.000000
vt 0.502146 0.002983
vt 0.758490 0.076667
vt 0.499552 1.000000
vt 0.500000 1.000000
vt 0.406649 0.002983
vt 0.726740 0.082982
vt 0.404055 1.000000
vt 0.437500 1.000000
vt 0.311152 0.002983
vt 0.376698 0.002983
vt 0.699824 0.100967
vt 0.308558 1.000000
vt 0.375000 1.000000
vt 0.314198 0.002983
vt 0.681839 0.127883
vt 0.312500 1.000000
vt 0.251698 0.002983
vt 0.675524 0.159633
vt 0.250000 1.000000
vt 0.189198 0.002983
vt 0.681839 0.191383
vt 0.187500 1.000000
vt 0.126698 0.002983
vt 0.699824 0.218299
vt 0.125000 1.000000
vt 0.064198 0.002983
vt 0.726740 0.236284
vt 0.062500 1.000000
vt 0.937500 1.000000
vt 0.937500 0.497769
vt 0.000000 1.000000
vt 1.000000 1.000000
vt 1.000000 0.497769
vt -0.000000 0.497769
vt 0.875000 1.000000
vt 0.875000 0.497769
vt 0.812500 1.000000
vt 0.812500 0.497769
vt 0.750000 1.000000
vt 0.750000 0.497769
vt 0.687500 1.000000
vt 0.687500 0.497769
vt 0.625000 1.000000
vt 0.625000 0.497769
vt 0.562500 1.000000
vt 0.562500 0.497769
vt 0.500000 1.000000
vt 0.500000 0.497769
vt 0.437500 1.000000
vt 0.437500 0.497769
vt 0.375000 1.000000
vt 0.375000 0.497769
vt 0.312500 1.000000
vt 0.312500 0.497769
vt 0.250000 1.000000
vt 0.250000 0.497769
vt 0.187500 1.000000
vt 0.187500 0.497769
vt 0.125000 1.000000
vt 0.125000 0.497769
vt 0.062500 1.000000
vt 0.062500 0.497769
vt 0.897039 0.863733
vt 0.935802 0.675027
vt 0.873168 0.868481
vt 0.998302 0.675027
vt -0.001698 0.675027
vt 0.917276 0.850211
vt 0.873302 0.675027
vt 0.930798 0.829974
vt 0.810802 0.675027
vt 0.935546 0.806103
vt 0.748302 0.675027
vt 0.930798 0.782232
vt 0.685802 0.675027
vt 0.917276 0.761995
vt 0.623302 0.675027
vt 0.897039 0.748474
vt 0.560802 0.675027
vt 0.873168 0.743725
vt 0.498302 0.675027
vt 0.849298 0.748474
vt 0.435802 0.675027
vt 0.829061 0.761995
vt 0.373302 0.675027
vt 0.815539 0.782232
vt 0.310802 0.675027
vt 0.810791 0.806103
vt 0.248302 0.675027
vt 0.815539 0.829974
vt 0.185802 0.675027
vt 0.829061 0.850211
vt 0.123302 0.675027
vt 0.849298 0.863733
vt 0.060802 0.675027
s 0
usemtl Material.001
f 1/1/1 2/5/1 4/8/1 3/6/1
f 3/6/2 4/8/2 6/11/2 5/9/2
f 5/9/3 6/11/3 8/14/3 7/12/3
f 7/12/4 8/14/4 10/17/4 9/15/4
f 9/15/5 10/17/5 12/20/5 11/18/5
f 11/18/6 12/20/6 14/25/6 13/21/6
f 13/22/7 14/24/7 16/28/7 15/26/7
f 15/26/8 16/28/8 18/32/8 17/30/8
f 17/30/9 18/32/9 20/36/9 19/34/9
f 19/34/10 20/36/10 22/41/10 21/38/10
f 21/39/11 22/42/11 24/45/11 23/43/11
f 23/43/12 24/45/12 26/48/12 25/46/12
f 25/46/13 26/48/13 28/51/13 27/49/13
f 27/49/14 28/51/14 30/54/14 29/52/14
f 2/4/15 32/57/15 48/90/15 34/60/15
f 29/52/16 30/54/16 32/57/16 31/55/16
f 31/55/17 32/57/17 2/4/17 1/2/17
f 1/3/18 3/7/18 5/10/18 7/13/18 9/16/18 11/19/18 13/23/18 15/27/18 17/31/18 19/35/18 21/40/18 23/44/18 25/47/18 27/50/18 29/53/18 31/56/18
f 42/79/9 41/77/9 57/110/9 58/112/9
f 10/17/19 8/14/19 36/66/19 37/68/19
f 20/37/20 18/33/20 41/76/20 42/78/20
f 30/54/21 28/51/21 46/86/21 47/88/21
f 6/11/22 4/8/22 33/58/22 35/64/22
f 16/29/23 14/25/23 39/72/23 40/74/23
f 26/48/24 24/45/24 44/82/24 45/84/24
f 12/20/25 10/17/25 37/68/25 38/70/25
f 22/42/26 20/37/26 42/78/26 43/80/26
f 32/57/27 30/54/27 47/88/27 48/90/27
f 8/14/28 6/11/28 35/64/28 36/66/28
f 18/33/29 16/29/29 40/74/29 41/76/29
f 28/51/30 26/48/30 45/84/30 46/86/30
f 4/8/31 2/5/31 34/61/31 33/58/31
f 14/25/32 12/20/32 38/70/32 39/72/32
f 24/45/33 22/42/33 43/80/33 44/82/33
f 49/92/34 50/94/34 64/123/34 63/121/34 62/119/34 61/117/34 60/115/34 59/113/34 58/111/34 57/109/34 56/107/34 55/105/34 54/103/34 53/101/34 52/99/34 51/97/34
f 35/65/2 33/59/2 49/93/2 51/98/2
f 43/81/10 42/79/10 58/112/10 59/114/10
f 36/67/3 35/65/3 51/98/3 52/100/3
f 44/83/11 43/81/11 59/114/11 60/116/11
f 37/69/4 36/67/4 52/100/4 53/102/4
f 45/85/12 44/83/12 60/116/12 61/118/12
f 38/71/5 37/69/5 53/102/5 54/104/5
f 46/87/13 45/85/13 61/118/13 62/120/13
f 39/73/6 38/71/6 54/104/6 55/106/6
f 47/89/14 46/87/14 62/120/14 63/122/14
f 40/75/7 39/73/7 55/106/7 56/108/7
f 48/91/16 47/89/16 63/122/16 64/124/16
f 41/77/8 40/75/8 56/108/8 57/110/8
f 33/59/1 34/62/1 50/95/1 49/93/1
f 34/63/17 48/91/17 64/124/17 50/96/17
