# Blender 3.4.1
# www.blender.org
mtllib caxaxinha.mtl
o Cylinder
v 0.000000 0.195018 -1.000000
v 0.000000 3.605912 -0.999999
v 0.382683 0.195018 -0.923880
v 0.382683 3.605912 -0.923879
v 0.707107 0.195018 -0.707107
v 0.707107 3.605912 -0.707106
v 0.923880 0.195018 -0.382683
v 0.923880 3.605912 -0.382682
v 1.000000 0.195018 0.000000
v 1.000000 3.605912 0.000001
v 0.923880 0.195018 0.382683
v 0.923880 3.605912 0.382684
v 0.707107 0.195018 0.707107
v 0.707107 3.605912 0.707108
v 0.382683 0.195018 0.923880
v 0.382683 3.605912 0.923881
v 0.000000 0.195018 1.000000
v 0.000000 3.605912 1.000001
v -0.382683 0.195018 0.923880
v -0.382683 3.605912 0.923881
v -0.707107 0.195018 0.707107
v -0.707107 3.605912 0.707108
v -0.923880 0.195018 0.382683
v -0.923880 3.605912 0.382684
v -1.000000 0.195018 0.000000
v -1.000000 3.605912 0.000001
v -0.923880 0.195018 -0.382683
v -0.923880 3.605912 -0.382682
v -0.707107 0.195018 -0.707107
v -0.707107 3.605912 -0.707106
v -0.382683 0.195018 -0.923880
v -0.382683 3.605912 -0.923879
v 0.113372 4.190227 -0.273703
v 0.000000 4.190227 -0.296255
v 0.209484 4.190227 -0.209483
v 0.273704 4.190227 -0.113371
v 0.296256 4.190227 0.000001
v 0.273704 4.190227 0.113373
v 0.209484 4.190227 0.209485
v 0.113372 4.190227 0.273705
v 0.000000 4.190227 0.296257
v -0.113372 4.190227 0.273705
v -0.209484 4.190227 0.209485
v -0.273704 4.190227 0.113373
v -0.296256 4.190227 0.000001
v -0.273704 4.190227 -0.113371
v -0.209484 4.190227 -0.209483
v -0.113372 4.190227 -0.273703
v 0.113372 5.367409 -0.273703
v 0.000000 5.367409 -0.296255
v 0.209484 5.367409 -0.209483
v 0.273704 5.367409 -0.113371
v 0.296256 5.367409 0.000001
v 0.273704 5.367409 0.113373
v 0.209484 5.367409 0.209485
v 0.113372 5.367409 0.273705
v 0.000000 5.367409 0.296257
v -0.113372 5.367409 0.273705
v -0.209484 5.367409 0.209485
v -0.273704 5.367409 0.113373
v -0.296256 5.367409 0.000001
v -0.273704 5.367409 -0.113371
v -0.209484 5.367409 -0.209483
v -0.113372 5.367409 -0.273703
vn -0.0000 -0.6657 -0.7462
vn -0.0000 0.4059 -0.9139
vn 0.3497 0.4059 -0.8444
vn 0.2856 -0.6657 -0.6894
vn 0.6462 0.4059 -0.6462
vn 0.5276 -0.6657 -0.5276
vn 0.8444 0.4059 -0.3497
vn 0.6894 -0.6657 -0.2856
vn 0.9139 0.4059 -0.0000
vn 0.7462 -0.6657 -0.0000
vn 0.8444 0.4059 0.3497
vn 0.6894 -0.6657 0.2856
vn 0.6462 0.4059 0.6462
vn 0.5276 -0.6657 0.5276
vn 0.3497 0.4059 0.8444
vn 0.2856 -0.6657 0.6894
vn -0.0000 0.4059 0.9139
vn -0.0000 -0.6657 0.7462
vn -0.3497 0.4059 0.8444
vn -0.2856 -0.6657 0.6894
vn -0.6462 0.4059 0.6462
vn -0.5276 -0.6657 0.5276
vn -0.8444 0.4059 0.3497
vn -0.6894 -0.6657 0.2856
vn -0.9139 0.4059 -0.0000
vn -0.7462 -0.6657 -0.0000
vn -0.8444 0.4059 -0.3497
vn -0.6894 -0.6657 -0.2856
vn -0.6462 0.4059 -0.6462
vn -0.5276 -0.6657 -0.5276
vn -0.3497 0.4059 -0.8444
vn -0.3424 0.4467 -0.8266
vn -0.0000 0.4467 -0.8947
vn -0.2856 -0.6657 -0.6894
vn -0.3424 0.4467 0.8266
vn -0.0000 0.4467 0.8947
vn -0.0000 0.6657 0.7462
vn -0.2856 0.6657 0.6894
vn 0.8266 0.4467 -0.3424
vn 0.8947 0.4467 -0.0000
vn -0.8266 0.4467 -0.3424
vn -0.6326 0.4467 -0.6326
vn 0.3424 0.4467 -0.8266
vn 0.6326 0.4467 -0.6326
vn 0.6326 0.4467 0.6326
vn 0.3424 0.4467 0.8266
vn -0.8266 0.4467 0.3424
vn -0.8947 0.4467 -0.0000
vn 0.8266 0.4467 0.3424
vn -0.6326 0.4467 0.6326
vn 0.2856 0.6657 -0.6894
vn -0.0000 0.6657 -0.7462
vn -0.2856 0.6657 -0.6894
vn -0.5276 0.6657 -0.5276
vn -0.6894 0.6657 -0.2856
vn -0.7462 0.6657 -0.0000
vn -0.6894 0.6657 0.2856
vn -0.5276 0.6657 0.5276
vn 0.2856 0.6657 0.6894
vn 0.5276 0.6657 0.5276
vn 0.6894 0.6657 0.2856
vn 0.7462 0.6657 -0.0000
vn 0.6894 0.6657 -0.2856
vn 0.5276 0.6657 -0.5276
vt 1.001698 0.002983
vt 0.001698 0.002983
vt 0.758490 0.242600
vt 0.000000 1.000000
vt 1.000000 1.000000
vt 0.939198 0.002983
vt 0.790240 0.236284
vt 0.937500 1.000000
vt 0.876698 0.002983
vt 0.817156 0.218299
vt 0.875000 1.000000
vt 0.814198 0.002983
vt 0.835141 0.191383
vt 0.812500 1.000000
vt 0.751698 0.002983
vt 0.841457 0.159633
vt 0.750000 1.000000
vt 0.689198 0.002983
vt 0.835141 0.127883
vt 0.687500 1.000000
vt 0.626698 0.002983
vt 0.693140 0.002983
vt 0.817156 0.100967
vt 0.690546 1.000000
vt 0.625000 1.000000
vt 0.597643 0.002983
vt 0.790240 0.082982
vt 0.595049 1.000000
vt 0.562500 1.000000
vt 0.502146 0.002983
vt 0.758490 0.076667
vt 0.499552 1.000000
vt 0.500000 1.000000
vt 0.406649 0.002983
vt 0.726740 0.082982
vt 0.404055 1.000000
vt 0.437500 1.000000
vt 0.311152 0.002983
vt 0.376698 0.002983
vt 0.699824 0.100967
vt 0.308558 1.000000
vt 0.375000 1.000000
vt 0.314198 0.002983
vt 0.681839 0.127883
vt 0.312500 1.000000
vt 0.251698 0.002983
vt 0.675524 0.159633
vt 0.250000 1.000000
vt 0.189198 0.002983
vt 0.681839 0.191383
vt 0.187500 1.000000
vt 0.126698 0.002983
vt 0.699824 0.218299
vt 0.125000 1.000000
vt 0.064198 0.002983
vt 0.726740 0.236284
vt 0.062500 1.000000
vt 0.937500 1.000000
vt 0.937500 0.497769
vt 0.000000 1.000000
vt 1.000000 1.000000
vt 1.000000 0.497769
vt -0.000000 0.497769
vt 0.875000 1.000000
vt 0.875000 0.497769
vt 0.812500 1.000000
vt 0.812500 0.497769
vt 0.750000 1.000000
vt 0.750000 0.497769
vt 0.687500 1.000000
vt 0.687500 0.497769
vt 0.625000 1.000000
vt 0.625000 0.497769
vt 0.562500 1.000000
vt 0.562500 0.497769
vt 0.500000 1.000000
vt 0.500000 0.497769
vt 0.437500 1.000000
vt 0.437500 0.497769
vt 0.375000 1.000000
vt 0.375000 0.497769
vt 0.312500 1.000000
vt 0.312500 0.497769
vt 0.250000 1.000000
vt 0.250000 0.497769
vt 0.187500 1.000000
vt 0.187500 0.497769
vt 0.125000 1.000000
vt 0.125000 0.497769
vt 0.062500 1.000000
vt 0.062500 0.497769
vt 0.897039 0.863733
vt 0.935802 0.675027
vt 0.873168 0.868481
vt 0.998302 0.675027
vt -0.001698 0.675027
vt 0.917276 0.850211
vt 0.873302 0.675027
vt 0.930798 0.829974
vt 0.810802 0.675027
vt 0.935546 0.806103
vt 0.748302 0.675027
vt 0.930798 0.782232
vt 0.685802 0.675027
vt 0.917276 0.761995
vt 0.623302 0.675027
vt 0.897039 0.748474
vt 0.560802 0.675027
vt 0.873168 0.743725
vt 0.498302 0.675027
vt 0.849298 0.748474
vt 0.435802 0.675027
vt 0.829061 0.761995
vt 0.373302 0.675027
vt 0.815539 0.782232
vt 0.310802 0.675027
vt 0.810791 0.806103
vt 0.248302 0.675027
vt 0.815539 0.829974
vt 0.185802 0.675027
vt 0.829061 0.850211
vt 0.123302 0.675027
vt 0.849298 0.863733
vt 0.060802 0.675027
s 1
usemtl Material.003
f 1/1/1 2/5/2 4/8/3 3/6/4
f 3/6/4 4/8/3 6/11/5 5/9/6
f 5/9/6 6/11/5 8/14/7 7/12/8
f 7/12/8 8/14/7 10/17/9 9/15/10
f 9/15/10 10/17/9 12/20/11 11/18/12
f 11/18/12 12/20/11 14/25/13 13/21/14
f 13/22/14 14/24/13 16/28/15 15/26/16
f 15/26/16 16/28/15 18/32/17 17/30/18
f 17/30/18 18/32/17 20/36/19 19/34/20
f 19/34/20 20/36/19 22/41/21 21/38/22
f 21/39/22 22/42/21 24/45/23 23/43/24
f 23/43/24 24/45/23 26/48/25 25/46/26
f 25/46/26 26/48/25 28/51/27 27/49/28
f 27/49/28 28/51/27 30/54/29 29/52/30
f 2/4/2 32/57/31 48/90/32 34/60/33
f 29/52/30 30/54/29 32/57/31 31/55/34
f 31/55/34 32/57/31 2/4/2 1/2/1
f 1/3/1 3/7/4 5/10/6 7/13/8 9/16/10 11/19/12 13/23/14 15/27/16 17/31/18 19/35/20 21/40/22 23/44/24 25/47/26 27/50/28 29/53/30 31/56/34
f 42/79/35 41/77/36 57/110/37 58/112/38
f 10/17/9 8/14/7 36/66/39 37/68/40
f 20/37/19 18/33/17 41/76/36 42/78/35
f 30/54/29 28/51/27 46/86/41 47/88/42
f 6/11/5 4/8/3 33/58/43 35/64/44
f 16/29/15 14/25/13 39/72/45 40/74/46
f 26/48/25 24/45/23 44/82/47 45/84/48
f 12/20/11 10/17/9 37/68/40 38/70/49
f 22/42/21 20/37/19 42/78/35 43/80/50
f 32/57/31 30/54/29 47/88/42 48/90/32
f 8/14/7 6/11/5 35/64/44 36/66/39
f 18/33/17 16/29/15 40/74/46 41/76/36
f 28/51/27 26/48/25 45/84/48 46/86/41
f 4/8/3 2/5/2 34/61/33 33/58/43
f 14/25/13 12/20/11 38/70/49 39/72/45
f 24/45/23 22/42/21 43/80/50 44/82/47
f 49/92/51 50/94/52 64/123/53 63/121/54 62/119/55 61/117/56 60/115/57 59/113/58 58/111/38 57/109/37 56/107/59 55/105/60 54/103/61 53/101/62 52/99/63 51/97/64
f 35/65/44 33/59/43 49/93/51 51/98/64
f 43/81/50 42/79/35 58/112/38 59/114/58
f 36/67/39 35/65/44 51/98/64 52/100/63
f 44/83/47 43/81/50 59/114/58 60/116/57
f 37/69/40 36/67/39 52/100/63 53/102/62
f 45/85/48 44/83/47 60/116/57 61/118/56
f 38/71/49 37/69/40 53/102/62 54/104/61
f 46/87/41 45/85/48 61/118/56 62/120/55
f 39/73/45 38/71/49 54/104/61 55/106/60
f 47/89/42 46/87/41 62/120/55 63/122/54
f 40/75/46 39/73/45 55/106/60 56/108/59
f 48/91/32 47/89/42 63/122/54 64/124/53
f 41/77/36 40/75/46 56/108/59 57/110/37
f 33/59/43 34/62/33 50/95/52 49/93/51
f 34/63/33 48/91/32 64/124/53 50/96/52
