# Blender 3.4.1
# www.blender.org
mtllib seagrass.mtl
o Plane.014
v 3.529337 -2.871287 6.442255
v 4.929337 -2.871287 6.442255
v 3.229337 -0.871287 6.442255
v 5.229337 -0.871287 6.442255
v 3.529337 1.128713 6.442255
v 4.929337 1.128713 6.442255
v 3.229337 3.128713 6.442255
v 5.229337 3.128713 6.442255
v 3.529337 5.128713 6.442255
v 4.929337 5.128713 6.442255
v 3.229337 7.128713 6.442255
v 5.229337 7.128713 6.442255
v 3.529337 9.128714 6.442255
v 4.929337 9.128714 6.442255
v 4.229337 11.128714 6.442255
v 3.249337 -4.871286 6.442255
v 5.209337 -4.871286 6.442255
v 3.529337 -6.871286 6.442255
v 4.929337 -6.871286 6.442255
v -0.966197 -0.871287 1.592896
v 0.246238 -0.871287 0.892896
v -1.226005 1.128713 1.742896
v 0.506046 1.128713 0.742896
v -0.966197 3.128713 1.592896
v 0.246238 3.128713 0.892896
v -1.226005 5.128713 1.742896
v 0.506046 5.128713 0.742896
v -0.966197 7.128713 1.592896
v 0.246238 7.128713 0.892896
v -1.226005 9.128714 1.742896
v 0.506046 9.128714 0.742896
v -0.966197 11.128714 1.592896
v 0.246238 11.128714 0.892896
v -0.359980 13.128714 1.242896
v -1.208684 -2.871287 1.732896
v 0.488725 -2.871287 0.752896
v -0.966197 -4.871286 1.592896
v 0.246238 -4.871286 0.892896
v 1.863930 1.128713 -3.041079
v 3.076365 1.128713 -3.741079
v 1.604122 3.128713 -2.891079
v 3.336173 3.128713 -3.891079
v 1.863930 5.128713 -3.041079
v 3.076365 5.128713 -3.741079
v 1.604122 7.128713 -2.891079
v 3.336173 7.128713 -3.891079
v 1.863930 9.128714 -3.041079
v 3.076365 9.128714 -3.741079
v 1.604122 11.128714 -2.891079
v 3.336173 11.128714 -3.891079
v 1.863930 13.128714 -3.041079
v 3.076365 13.128714 -3.741079
v 2.470147 15.128714 -3.391079
v 1.621442 -0.871287 -2.901079
v 3.318852 -0.871287 -3.881079
v 1.863930 -2.871287 -3.041079
v 3.076365 -2.871287 -3.741079
v 5.529337 -0.871287 0.442255
v 6.929337 -0.871287 0.442255
v 5.229337 1.128713 0.442255
v 7.229337 1.128713 0.442255
v 5.529337 3.128713 0.442255
v 6.929337 3.128713 0.442255
v 5.229337 5.128713 0.442255
v 7.229337 5.128713 0.442255
v 5.529337 7.128713 0.442255
v 6.929337 7.128713 0.442255
v 5.229337 9.128714 0.442255
v 7.229337 9.128714 0.442255
v 5.529337 11.128714 0.442255
v 6.929337 11.128714 0.442255
v 6.229337 13.128714 0.442255
v 5.249337 -2.871287 0.442255
v 7.209337 -2.871287 0.442255
v 5.529337 -4.871286 0.442255
v 6.929337 -4.871286 0.442255
v -6.770664 1.128714 1.142254
v -6.770664 1.128714 -0.257746
v -6.770664 3.128713 1.442254
v -6.770664 3.128713 -0.557746
v -6.770664 5.128713 1.142254
v -6.770664 5.128713 -0.257746
v -6.770664 7.128713 1.442254
v -6.770664 7.128713 -0.557746
v -6.770664 9.128714 1.142254
v -6.770664 9.128714 -0.257746
v -6.770664 11.128714 1.442254
v -6.770664 11.128714 -0.557746
v -6.770664 13.128714 1.142254
v -6.770664 13.128714 -0.257746
v -6.770664 15.128713 0.442254
v -6.770664 -0.871286 1.422254
v -6.770664 -0.871286 -0.537745
v -6.770664 -2.871286 1.142254
v -6.770664 -2.871286 -0.257746
v -6.028376 -0.871287 6.824946
v -4.815940 -0.871287 6.124947
v -6.288183 1.128713 6.974947
v -4.556132 1.128713 5.974947
v -6.028376 3.128713 6.824946
v -4.815940 3.128713 6.124947
v -6.288183 5.128713 6.974947
v -4.556132 5.128713 5.974947
v -6.028376 7.128713 6.824946
v -4.815940 7.128713 6.124947
v -6.288183 9.128714 6.974947
v -4.556132 9.128714 5.974947
v -6.028376 11.128714 6.824946
v -4.815940 11.128714 6.124947
v -5.422157 13.128714 6.474947
v -6.270862 -2.871287 6.964947
v -4.573453 -2.871287 5.984947
v -6.028376 -4.871286 6.824946
v -4.815940 -4.871286 6.124947
v 6.711592 2.128713 5.157011
v 7.386522 2.128713 3.930443
v 6.566964 4.128713 5.419846
v 7.531151 4.128713 3.667606
v 6.711592 6.128713 5.157011
v 7.386522 6.128713 3.930443
v 6.566964 8.128714 5.419846
v 7.531151 8.128714 3.667606
v 6.711592 10.128714 5.157011
v 7.386522 10.128714 3.930443
v 6.566964 12.128714 5.419846
v 7.531151 12.128714 3.667606
v 6.711592 14.128713 5.157011
v 7.386522 14.128713 3.930443
v 7.049057 16.128712 4.543726
v 6.576606 0.128714 5.402324
v 7.521509 0.128714 3.685129
v 6.711592 -1.871287 5.157011
v 7.386522 -1.871287 3.930443
v 6.576606 -3.871286 5.402324
v 7.521509 -3.871286 3.685129
v 6.765586 -5.871285 5.058885
v 7.332528 -5.871285 4.028568
v 7.371817 -0.871287 -2.887982
v 6.145250 -0.871287 -3.562912
v 7.634654 1.128713 -2.743353
v 5.882414 1.128713 -3.707541
v 7.371817 3.128713 -2.887982
v 6.145250 3.128713 -3.562912
v 7.634654 5.128713 -2.743353
v 5.882414 5.128713 -3.707541
v 7.371817 7.128713 -2.887982
v 6.145250 7.128713 -3.562912
v 7.634654 9.128714 -2.743353
v 5.882414 9.128714 -3.707541
v 7.371817 11.128714 -2.887982
v 6.145250 11.128714 -3.562912
v 6.758533 13.128714 -3.225447
v 7.617131 -2.871287 -2.752995
v 5.899936 -2.871287 -3.697899
v 7.371817 -4.871286 -2.887982
v 6.145250 -4.871286 -3.562912
v 0.929337 1.128713 -8.224413
v -0.470663 1.128713 -8.224413
v 1.229337 3.128713 -8.224413
v -0.770663 3.128713 -8.224413
v 0.929337 5.128713 -8.224413
v -0.470663 5.128713 -8.224413
v 1.229337 7.128713 -8.224413
v -0.770663 7.128713 -8.224413
v 0.929337 9.128714 -8.224413
v -0.470663 9.128714 -8.224413
v 1.229337 11.128714 -8.224413
v -0.770663 11.128714 -8.224413
v 0.929337 13.128714 -8.224413
v -0.470663 13.128714 -8.224413
v 0.229337 15.128714 -8.224413
v 1.209337 -0.871287 -8.224413
v -0.750663 -0.871287 -8.224413
v 0.929337 -2.871287 -8.224413
v -0.470663 -2.871287 -8.224413
v -2.770664 -0.871286 -1.924412
v -2.770664 -0.871286 -0.524413
v -2.770664 1.128713 -2.224412
v -2.770663 1.128713 -0.224412
v -2.770664 3.128713 -1.924412
v -2.770664 3.128713 -0.524413
v -2.770664 5.128713 -2.224412
v -2.770663 5.128713 -0.224412
v -2.770664 7.128713 -1.924412
v -2.770664 7.128713 -0.524413
v -2.770664 9.128713 -2.224412
v -2.770663 9.128713 -0.224412
v -2.770664 11.128713 -1.924412
v -2.770664 11.128713 -0.524413
v -2.770664 13.128713 -1.224412
v -2.770664 -2.871286 -2.204412
v -2.770663 -2.871286 -0.244413
v -2.770664 -4.871285 -1.924412
v -2.770664 -4.871285 -0.524413
v 5.229336 1.128714 -6.924412
v 5.229336 1.128714 -5.524412
v 5.229336 3.128713 -7.224413
v 5.229336 3.128713 -5.224413
v 5.229336 5.128713 -6.924412
v 5.229336 5.128713 -5.524412
v 5.229336 7.128713 -7.224413
v 5.229336 7.128713 -5.224413
v 5.229336 9.128714 -6.924412
v 5.229336 9.128714 -5.524412
v 5.229336 11.128714 -7.224413
v 5.229336 11.128714 -5.224413
v 5.229336 13.128714 -6.924412
v 5.229336 13.128714 -5.524412
v 5.229336 15.128713 -6.224413
v 5.229336 -0.871286 -7.204412
v 5.229336 -0.871286 -5.244412
v 5.229336 -2.871286 -6.924412
v 5.229336 -2.871286 -5.524412
v 2.291233 -0.871287 -10.249208
v 1.064666 -0.871287 -10.924139
v 2.554070 1.128713 -10.104581
v 0.801830 1.128713 -11.068768
v 2.291233 3.128713 -10.249208
v 1.064666 3.128713 -10.924139
v 2.554070 5.128713 -10.104581
v 0.801830 5.128713 -11.068768
v 2.291233 7.128713 -10.249208
v 1.064666 7.128713 -10.924139
v 2.554070 9.128714 -10.104581
v 0.801830 9.128714 -11.068768
v 2.291233 11.128714 -10.249208
v 1.064666 11.128714 -10.924139
v 1.677949 13.128714 -10.586674
v 2.536547 -2.871287 -10.114223
v 0.819352 -2.871287 -11.059126
v 2.291233 -4.871286 -10.249208
v 1.064666 -4.871286 -10.924139
v -6.070663 2.128713 -4.224411
v -7.470663 2.128713 -4.224411
v -5.770663 4.128713 -4.224411
v -7.770663 4.128713 -4.224411
v -6.070663 6.128713 -4.224411
v -7.470663 6.128713 -4.224411
v -5.770663 8.128714 -4.224411
v -7.770663 8.128714 -4.224411
v -6.070663 10.128714 -4.224411
v -7.470663 10.128714 -4.224411
v -5.770663 12.128714 -4.224411
v -7.770663 12.128714 -4.224411
v -6.070663 14.128714 -4.224411
v -7.470663 14.128714 -4.224411
v -6.770663 16.128714 -4.224411
v -5.790664 0.128713 -4.224411
v -7.750663 0.128713 -4.224411
v -6.070663 -1.871287 -4.224411
v -7.470663 -1.871287 -4.224411
v -5.790664 -3.871287 -4.224411
v -7.750663 -3.871287 -4.224411
v -6.182663 -5.871286 -4.224411
v -7.358664 -5.871286 -4.224411
v -8.722466 -2.871287 2.713670
v -7.495899 -2.871287 3.388601
v -8.985302 -0.871287 2.569043
v -7.233062 -0.871287 3.533230
v -8.722466 1.128713 2.713670
v -7.495899 1.128713 3.388601
v -8.985302 3.128713 2.569043
v -7.233062 3.128713 3.533230
v -8.722466 5.128713 2.713670
v -7.495899 5.128713 3.388601
v -8.985302 7.128713 2.569043
v -7.233062 7.128713 3.533230
v -8.722466 9.128714 2.713670
v -7.495899 9.128714 3.388601
v -8.109182 11.128714 3.051136
v -8.967779 -4.871286 2.578684
v -7.250585 -4.871286 3.523587
v -8.722466 -6.871286 2.713670
v -7.495899 -6.871286 3.388601
v -0.470663 -0.871287 8.442254
v 0.929337 -0.871287 8.442254
v -0.770663 1.128713 8.442254
v 1.229337 1.128713 8.442254
v -0.470663 3.128713 8.442254
v 0.929337 3.128713 8.442254
v -0.770663 5.128713 8.442254
v 1.229337 5.128713 8.442254
v -0.470663 7.128713 8.442254
v 0.929337 7.128713 8.442254
v -0.770663 9.128714 8.442254
v 1.229337 9.128714 8.442254
v -0.470663 11.128714 8.442254
v 0.929337 11.128714 8.442254
v 0.229337 13.128714 8.442254
v -0.750663 -2.871287 8.442254
v 1.209337 -2.871287 8.442254
v -0.470663 -4.871286 8.442254
v 0.929337 -4.871286 8.442254
vn -0.0000 -0.0000 1.0000
vn 0.5000 -0.0000 0.8660
vn 1.0000 -0.0000 -0.0000
vn 0.8761 -0.0000 0.4821
vn 0.4821 -0.0000 -0.8761
vn -0.0000 -0.0000 -1.0000
vn -1.0000 -0.0000 -0.0000
vn -0.4821 -0.0000 0.8761
vt 0.000000 0.000000
vt 1.000000 0.000000
vt 0.000000 1.000000
vt 1.000000 1.000000
vt 0.000000 1.000000
vt 1.000000 1.000000
vt 0.000000 1.000000
vt 1.000000 1.000000
vt 0.000000 1.000000
vt 1.000000 1.000000
vt 0.000000 1.000000
vt 1.000000 1.000000
vt 0.000000 1.000000
vt 1.000000 1.000000
vt 0.000000 1.000000
vt 0.000000 0.000000
vt 1.000000 0.000000
vt 0.000000 0.000000
vt 1.000000 0.000000
vt 0.000000 0.000000
vt 1.000000 0.000000
vt 0.000000 1.000000
vt 1.000000 1.000000
vt 0.000000 1.000000
vt 1.000000 1.000000
vt 0.000000 1.000000
vt 1.000000 1.000000
vt 0.000000 1.000000
vt 1.000000 1.000000
vt 0.000000 1.000000
vt 1.000000 1.000000
vt 0.000000 1.000000
vt 1.000000 1.000000
vt 0.000000 1.000000
vt 0.000000 0.000000
vt 1.000000 0.000000
vt 0.000000 0.000000
vt 1.000000 0.000000
vt 0.000000 0.000000
vt 1.000000 0.000000
vt 0.000000 1.000000
vt 1.000000 1.000000
vt 0.000000 1.000000
vt 1.000000 1.000000
vt 0.000000 1.000000
vt 1.000000 1.000000
vt 0.000000 1.000000
vt 1.000000 1.000000
vt 0.000000 1.000000
vt 1.000000 1.000000
vt 0.000000 1.000000
vt 1.000000 1.000000
vt 0.000000 1.000000
vt 0.000000 0.000000
vt 1.000000 0.000000
vt 0.000000 0.000000
vt 1.000000 0.000000
vt 0.000000 0.000000
vt 1.000000 0.000000
vt 0.000000 1.000000
vt 1.000000 1.000000
vt 0.000000 1.000000
vt 1.000000 1.000000
vt 0.000000 1.000000
vt 1.000000 1.000000
vt 0.000000 1.000000
vt 1.000000 1.000000
vt 0.000000 1.000000
vt 1.000000 1.000000
vt 0.000000 1.000000
vt 1.000000 1.000000
vt 0.000000 1.000000
vt 0.000000 0.000000
vt 1.000000 0.000000
vt 0.000000 0.000000
vt 1.000000 0.000000
vt 0.000000 0.000000
vt 1.000000 0.000000
vt 0.000000 1.000000
vt 1.000000 1.000000
vt 0.000000 1.000000
vt 1.000000 1.000000
vt 0.000000 1.000000
vt 1.000000 1.000000
vt 0.000000 1.000000
vt 1.000000 1.000000
vt 0.000000 1.000000
vt 1.000000 1.000000
vt 0.000000 1.000000
vt 1.000000 1.000000
vt 0.000000 1.000000
vt 0.000000 0.000000
vt 1.000000 0.000000
vt 0.000000 0.000000
vt 1.000000 0.000000
vt 0.000000 0.000000
vt 1.000000 0.000000
vt 0.000000 1.000000
vt 1.000000 1.000000
vt 0.000000 1.000000
vt 1.000000 1.000000
vt 0.000000 1.000000
vt 1.000000 1.000000
vt 0.000000 1.000000
vt 1.000000 1.000000
vt 0.000000 1.000000
vt 1.000000 1.000000
vt 0.000000 1.000000
vt 1.000000 1.000000
vt 0.000000 1.000000
vt 0.000000 0.000000
vt 1.000000 0.000000
vt 0.000000 0.000000
vt 1.000000 0.000000
vt 0.000000 0.000000
vt 1.000000 0.000000
vt 0.000000 1.000000
vt 1.000000 1.000000
vt 0.000000 1.000000
vt 1.000000 1.000000
vt 0.000000 1.000000
vt 1.000000 1.000000
vt 0.000000 1.000000
vt 1.000000 1.000000
vt 0.000000 1.000000
vt 1.000000 1.000000
vt 0.000000 1.000000
vt 1.000000 1.000000
vt 0.000000 1.000000
vt 0.000000 0.000000
vt 1.000000 0.000000
vt 0.000000 0.000000
vt 1.000000 0.000000
vt 0.000000 0.000000
vt 1.000000 0.000000
vt 0.000000 0.000000
vt 1.000000 0.000000
vt 0.000000 0.000000
vt 1.000000 0.000000
vt 0.000000 1.000000
vt 1.000000 1.000000
vt 0.000000 1.000000
vt 1.000000 1.000000
vt 0.000000 1.000000
vt 1.000000 1.000000
vt 0.000000 1.000000
vt 1.000000 1.000000
vt 0.000000 1.000000
vt 1.000000 1.000000
vt 0.000000 1.000000
vt 1.000000 1.000000
vt 0.000000 1.000000
vt 0.000000 0.000000
vt 1.000000 0.000000
vt 0.000000 0.000000
vt 1.000000 0.000000
vt 0.000000 0.000000
vt 1.000000 0.000000
vt 0.000000 1.000000
vt 1.000000 1.000000
vt 0.000000 1.000000
vt 1.000000 1.000000
vt 0.000000 1.000000
vt 1.000000 1.000000
vt 0.000000 1.000000
vt 1.000000 1.000000
vt 0.000000 1.000000
vt 1.000000 1.000000
vt 0.000000 1.000000
vt 1.000000 1.000000
vt 0.000000 1.000000
vt 0.000000 0.000000
vt 1.000000 0.000000
vt 0.000000 0.000000
vt 1.000000 0.000000
vt 0.000000 0.000000
vt 1.000000 0.000000
vt 0.000000 1.000000
vt 1.000000 1.000000
vt 0.000000 1.000000
vt 1.000000 1.000000
vt 0.000000 1.000000
vt 1.000000 1.000000
vt 0.000000 1.000000
vt 1.000000 1.000000
vt 0.000000 1.000000
vt 1.000000 1.000000
vt 0.000000 1.000000
vt 1.000000 1.000000
vt 0.000000 1.000000
vt 0.000000 0.000000
vt 1.000000 0.000000
vt 0.000000 0.000000
vt 1.000000 0.000000
vt 0.000000 0.000000
vt 1.000000 0.000000
vt 0.000000 1.000000
vt 1.000000 1.000000
vt 0.000000 1.000000
vt 1.000000 1.000000
vt 0.000000 1.000000
vt 1.000000 1.000000
vt 0.000000 1.000000
vt 1.000000 1.000000
vt 0.000000 1.000000
vt 1.000000 1.000000
vt 0.000000 1.000000
vt 1.000000 1.000000
vt 0.000000 1.000000
vt 0.000000 0.000000
vt 1.000000 0.000000
vt 0.000000 0.000000
vt 1.000000 0.000000
vt 0.000000 0.000000
vt 1.000000 0.000000
vt 0.000000 1.000000
vt 1.000000 1.000000
vt 0.000000 1.000000
vt 1.000000 1.000000
vt 0.000000 1.000000
vt 1.000000 1.000000
vt 0.000000 1.000000
vt 1.000000 1.000000
vt 0.000000 1.000000
vt 1.000000 1.000000
vt 0.000000 1.000000
vt 1.000000 1.000000
vt 0.000000 1.000000
vt 0.000000 0.000000
vt 1.000000 0.000000
vt 0.000000 0.000000
vt 1.000000 0.000000
vt 0.000000 0.000000
vt 1.000000 0.000000
vt 0.000000 1.000000
vt 1.000000 1.000000
vt 0.000000 1.000000
vt 1.000000 1.000000
vt 0.000000 1.000000
vt 1.000000 1.000000
vt 0.000000 1.000000
vt 1.000000 1.000000
vt 0.000000 1.000000
vt 1.000000 1.000000
vt 0.000000 1.000000
vt 1.000000 1.000000
vt 0.000000 1.000000
vt 0.000000 0.000000
vt 1.000000 0.000000
vt 0.000000 0.000000
vt 1.000000 0.000000
vt 0.000000 0.000000
vt 1.000000 0.000000
vt 0.000000 0.000000
vt 1.000000 0.000000
vt 0.000000 0.000000
vt 1.000000 0.000000
vt 0.000000 1.000000
vt 1.000000 1.000000
vt 0.000000 1.000000
vt 1.000000 1.000000
vt 0.000000 1.000000
vt 1.000000 1.000000
vt 0.000000 1.000000
vt 1.000000 1.000000
vt 0.000000 1.000000
vt 1.000000 1.000000
vt 0.000000 1.000000
vt 1.000000 1.000000
vt 0.000000 1.000000
vt 0.000000 0.000000
vt 1.000000 0.000000
vt 0.000000 0.000000
vt 1.000000 0.000000
vt 0.000000 0.000000
vt 1.000000 0.000000
vt 0.000000 1.000000
vt 1.000000 1.000000
vt 0.000000 1.000000
vt 1.000000 1.000000
vt 0.000000 1.000000
vt 1.000000 1.000000
vt 0.000000 1.000000
vt 1.000000 1.000000
vt 0.000000 1.000000
vt 1.000000 1.000000
vt 0.000000 1.000000
vt 1.000000 1.000000
vt 0.000000 1.000000
vt 0.000000 0.000000
vt 1.000000 0.000000
vt 0.000000 0.000000
vt 1.000000 0.000000
s 0
usemtl Seaweed
f 1/1/1 2/2/1 4/4/1 3/3/1
f 3/3/1 4/4/1 6/6/1 5/5/1
f 5/5/1 6/6/1 8/8/1 7/7/1
f 7/7/1 8/8/1 10/10/1 9/9/1
f 9/9/1 10/10/1 12/12/1 11/11/1
f 11/11/1 12/12/1 14/14/1 13/13/1
f 13/13/1 14/14/1 15/15/1
f 2/2/1 1/1/1 16/16/1 17/17/1
f 17/17/1 16/16/1 18/18/1 19/19/1
f 20/20/2 21/21/2 23/23/2 22/22/2
f 22/22/2 23/23/2 25/25/2 24/24/2
f 24/24/2 25/25/2 27/27/2 26/26/2
f 26/26/2 27/27/2 29/29/2 28/28/2
f 28/28/2 29/29/2 31/31/2 30/30/2
f 30/30/2 31/31/2 33/33/2 32/32/2
f 32/32/2 33/33/2 34/34/2
f 21/21/2 20/20/2 35/35/2 36/36/2
f 36/36/2 35/35/2 37/37/2 38/38/2
f 39/39/2 40/40/2 42/42/2 41/41/2
f 41/41/2 42/42/2 44/44/2 43/43/2
f 43/43/2 44/44/2 46/46/2 45/45/2
f 45/45/2 46/46/2 48/48/2 47/47/2
f 47/47/2 48/48/2 50/50/2 49/49/2
f 49/49/2 50/50/2 52/52/2 51/51/2
f 51/51/2 52/52/2 53/53/2
f 40/40/2 39/39/2 54/54/2 55/55/2
f 55/55/2 54/54/2 56/56/2 57/57/2
f 58/58/1 59/59/1 61/61/1 60/60/1
f 60/60/1 61/61/1 63/63/1 62/62/1
f 62/62/1 63/63/1 65/65/1 64/64/1
f 64/64/1 65/65/1 67/67/1 66/66/1
f 66/66/1 67/67/1 69/69/1 68/68/1
f 68/68/1 69/69/1 71/71/1 70/70/1
f 70/70/1 71/71/1 72/72/1
f 59/59/1 58/58/1 73/73/1 74/74/1
f 74/74/1 73/73/1 75/75/1 76/76/1
f 77/77/3 78/78/3 80/80/3 79/79/3
f 79/79/3 80/80/3 82/82/3 81/81/3
f 81/81/3 82/82/3 84/84/3 83/83/3
f 83/83/3 84/84/3 86/86/3 85/85/3
f 85/85/3 86/86/3 88/88/3 87/87/3
f 87/87/3 88/88/3 90/90/3 89/89/3
f 89/89/3 90/90/3 91/91/3
f 78/78/3 77/77/3 92/92/3 93/93/3
f 93/93/3 92/92/3 94/94/3 95/95/3
f 96/96/2 97/97/2 99/99/2 98/98/2
f 98/98/2 99/99/2 101/101/2 100/100/2
f 100/100/2 101/101/2 103/103/2 102/102/2
f 102/102/2 103/103/2 105/105/2 104/104/2
f 104/104/2 105/105/2 107/107/2 106/106/2
f 106/106/2 107/107/2 109/109/2 108/108/2
f 108/108/2 109/109/2 110/110/2
f 97/97/2 96/96/2 111/111/2 112/112/2
f 112/112/2 111/111/2 113/113/2 114/114/2
f 115/115/4 116/116/4 118/118/4 117/117/4
f 117/117/4 118/118/4 120/120/4 119/119/4
f 119/119/4 120/120/4 122/122/4 121/121/4
f 121/121/4 122/122/4 124/124/4 123/123/4
f 123/123/4 124/124/4 126/126/4 125/125/4
f 125/125/4 126/126/4 128/128/4 127/127/4
f 127/127/4 128/128/4 129/129/4
f 116/116/4 115/115/4 130/130/4 131/131/4
f 131/131/4 130/130/4 132/132/4 133/133/4
f 133/133/4 132/132/4 134/134/4 135/135/4
f 135/135/4 134/134/4 136/136/4 137/137/4
f 138/138/5 139/139/5 141/141/5 140/140/5
f 140/140/5 141/141/5 143/143/5 142/142/5
f 142/142/5 143/143/5 145/145/5 144/144/5
f 144/144/5 145/145/5 147/147/5 146/146/5
f 146/146/5 147/147/5 149/149/5 148/148/5
f 148/148/5 149/149/5 151/151/5 150/150/5
f 150/150/5 151/151/5 152/152/5
f 139/139/5 138/138/5 153/153/5 154/154/5
f 154/154/5 153/153/5 155/155/5 156/156/5
f 157/157/6 158/158/6 160/160/6 159/159/6
f 159/159/6 160/160/6 162/162/6 161/161/6
f 161/161/6 162/162/6 164/164/6 163/163/6
f 163/163/6 164/164/6 166/166/6 165/165/6
f 165/165/6 166/166/6 168/168/6 167/167/6
f 167/167/6 168/168/6 170/170/6 169/169/6
f 169/169/6 170/170/6 171/171/6
f 158/158/6 157/157/6 172/172/6 173/173/6
f 173/173/6 172/172/6 174/174/6 175/175/6
f 176/176/7 177/177/7 179/179/7 178/178/7
f 178/178/7 179/179/7 181/181/7 180/180/7
f 180/180/7 181/181/7 183/183/7 182/182/7
f 182/182/7 183/183/7 185/185/7 184/184/7
f 184/184/7 185/185/7 187/187/7 186/186/7
f 186/186/7 187/187/7 189/189/7 188/188/7
f 188/188/7 189/189/7 190/190/7
f 177/177/7 176/176/7 191/191/7 192/192/7
f 192/192/7 191/191/7 193/193/7 194/194/7
f 195/195/7 196/196/7 198/198/7 197/197/7
f 197/197/7 198/198/7 200/200/7 199/199/7
f 199/199/7 200/200/7 202/202/7 201/201/7
f 201/201/7 202/202/7 204/204/7 203/203/7
f 203/203/7 204/204/7 206/206/7 205/205/7
f 205/205/7 206/206/7 208/208/7 207/207/7
f 207/207/7 208/208/7 209/209/7
f 196/196/7 195/195/7 210/210/7 211/211/7
f 211/211/7 210/210/7 212/212/7 213/213/7
f 214/214/5 215/215/5 217/217/5 216/216/5
f 216/216/5 217/217/5 219/219/5 218/218/5
f 218/218/5 219/219/5 221/221/5 220/220/5
f 220/220/5 221/221/5 223/223/5 222/222/5
f 222/222/5 223/223/5 225/225/5 224/224/5
f 224/224/5 225/225/5 227/227/5 226/226/5
f 226/226/5 227/227/5 228/228/5
f 215/215/5 214/214/5 229/229/5 230/230/5
f 230/230/5 229/229/5 231/231/5 232/232/5
f 233/233/6 234/234/6 236/236/6 235/235/6
f 235/235/6 236/236/6 238/238/6 237/237/6
f 237/237/6 238/238/6 240/240/6 239/239/6
f 239/239/6 240/240/6 242/242/6 241/241/6
f 241/241/6 242/242/6 244/244/6 243/243/6
f 243/243/6 244/244/6 246/246/6 245/245/6
f 245/245/6 246/246/6 247/247/6
f 234/234/6 233/233/6 248/248/6 249/249/6
f 249/249/6 248/248/6 250/250/6 251/251/6
f 251/251/6 250/250/6 252/252/6 253/253/6
f 253/253/6 252/252/6 254/254/6 255/255/6
f 256/256/8 257/257/8 259/259/8 258/258/8
f 258/258/8 259/259/8 261/261/8 260/260/8
f 260/260/8 261/261/8 263/263/8 262/262/8
f 262/262/8 263/263/8 265/265/8 264/264/8
f 264/264/8 265/265/8 267/267/8 266/266/8
f 266/266/8 267/267/8 269/269/8 268/268/8
f 268/268/8 269/269/8 270/270/8
f 257/257/8 256/256/8 271/271/8 272/272/8
f 272/272/8 271/271/8 273/273/8 274/274/8
f 275/275/1 276/276/1 278/278/1 277/277/1
f 277/277/1 278/278/1 280/280/1 279/279/1
f 279/279/1 280/280/1 282/282/1 281/281/1
f 281/281/1 282/282/1 284/284/1 283/283/1
f 283/283/1 284/284/1 286/286/1 285/285/1
f 285/285/1 286/286/1 288/288/1 287/287/1
f 287/287/1 288/288/1 289/289/1
f 276/276/1 275/275/1 290/290/1 291/291/1
f 291/291/1 290/290/1 292/292/1 293/293/1
